<svg width="39" height="38" viewBox="0 0 39 38" fill="none" xmlns="http://www.w3.org/2000/svg">
<circle cx="19.0977" cy="19" r="19" fill="url(#paint0_linear_27093_13822)"/>
<path d="M25.3896 8.94092C27.458 8.94092 29.1504 10.6239 29.1504 12.7017V25.2993C29.1503 27.3769 27.4673 29.0601 25.3896 29.0601H12.792C10.7143 29.0601 9.03134 27.3769 9.03125 25.2993V18.812L11.0527 16.8003C11.316 16.5371 11.7763 16.725 11.7764 17.1011V22.6382H13.3086L13.3467 19.2261C13.3467 18.9064 13.4787 18.6145 13.6855 18.4077C13.8923 18.2011 14.1835 18.0699 14.5029 18.0698C14.973 18.0698 15.3584 18.4455 15.3584 18.9155V22.6294H16.8906V19.2349C16.8907 18.9154 17.0228 18.6242 17.2295 18.4175C17.4363 18.2106 17.7282 18.0786 18.0479 18.0786C18.5177 18.0789 18.9033 18.4554 18.9033 18.9253V22.6382H20.4355V18.6431C20.4355 17.6184 19.5988 16.7907 18.5742 16.7905H18.3574C17.549 16.7906 16.9472 17.2707 16.6934 17.8159C16.3831 17.2048 15.7532 16.7905 15.0293 16.7905H14.8135C14.005 16.7905 13.3463 17.44 13.3369 18.2485V17.1479C13.3368 15.9635 12.3688 15.1733 11.3535 15.1733C10.8741 15.1734 10.3857 15.3528 9.98145 15.7476L9.03125 16.687V12.7017C9.03125 10.6239 10.7143 8.94092 12.792 8.94092H25.3896ZM24.2656 16.9399C22.6957 16.9399 21.426 18.1995 21.4258 19.7505V20.146C21.4259 21.6877 22.6956 22.9478 24.2656 22.9478H24.6699C25.2245 22.9476 25.8357 22.7219 26.3057 22.3647C26.785 21.9982 27.1142 21.4997 27.1143 20.9546H25.6475C25.6473 21.4151 25.2614 21.7915 24.8008 21.7915H24.3682C23.635 21.7913 23.0332 21.1985 23.0332 20.4653V20.2583H27.1143V19.7505C27.1141 18.9798 26.7943 18.2747 26.2773 17.7671C25.7604 17.2501 25.0458 16.9401 24.2656 16.9399Z" fill="white"/>
<path d="M24.1662 18.0425H24.0883C23.4485 18.0425 22.9297 18.68 22.9297 19.4796H25.3248C25.3248 19.0798 25.1951 18.7232 24.9876 18.4639C24.7714 18.2046 24.4861 18.0425 24.1662 18.0425Z" fill="white"/>
<defs>
<linearGradient id="paint0_linear_27093_13822" x1="38.4802" y1="3.09302" x2="1.31018" y2="37.628" gradientUnits="userSpaceOnUse">
<stop stop-color="#EC008C"/>
<stop offset="0.697917" stop-color="#FC8B67"/>
<stop offset="1" stop-color="#FFD46D"/>
</linearGradient>
</defs>
</svg>
